<svg width="11" height="11" viewBox="0 0 11 11" fill="none" xmlns="http://www.w3.org/2000/svg">
<path d="M9.71094 1.71094C10.1172 1.33594 10.1172 0.679688 9.71094 0.304688C9.33594 -0.101562 8.67969 -0.101562 8.30469 0.304688L5.02344 3.58594L1.71094 0.304688C1.33594 -0.101562 0.679688 -0.101562 0.304688 0.304688C-0.101562 0.679688 -0.101562 1.33594 0.304688 1.71094L3.58594 4.99219L0.304688 8.30469C-0.101562 8.67969 -0.101562 9.33594 0.304688 9.71094C0.679688 10.1172 1.33594 10.1172 1.71094 9.71094L5.02344 6.42969L8.30469 9.71094C8.67969 10.1172 9.33594 10.1172 9.71094 9.71094C10.1172 9.33594 10.1172 8.67969 9.71094 8.30469L6.42969 4.99219L9.71094 1.71094Z" fill="black"/>
</svg>
