<svg width="24" height="24" viewBox="0 0 24 24" fill="none" xmlns="http://www.w3.org/2000/svg">
  <path d="M9.5 20H14.5" stroke="currentColor" stroke-width="1.8" stroke-linecap="round"/>
  <path d="M10 17.5H14" stroke="currentColor" stroke-width="1.8" stroke-linecap="round"/>
  <path d="M8.5 14.5C7.2 13.4 6.4 11.7 6.4 9.9C6.4 6.6 9 4 12.2 4C15.4 4 18 6.6 18 9.9C18 11.8 17.1 13.5 15.8 14.6C15.2 15.1 14.9 15.8 14.9 16.5V17H9.4V16.4C9.4 15.7 9.1 15 8.5 14.5Z" fill="currentColor" fill-opacity="0.15" stroke="currentColor" stroke-width="1.8" stroke-linecap="round" stroke-linejoin="round"/>
  <path d="M12.2 1.8V3.2" stroke="currentColor" stroke-width="1.8" stroke-linecap="round"/>
  <path d="M4.8 9.6H3.5" stroke="currentColor" stroke-width="1.8" stroke-linecap="round"/>
  <path d="M20.8 9.6H19.5" stroke="currentColor" stroke-width="1.8" stroke-linecap="round"/>
  <path d="M6.8 4.5L7.8 5.5" stroke="currentColor" stroke-width="1.8" stroke-linecap="round"/>
  <path d="M17.6 4.5L16.6 5.5" stroke="currentColor" stroke-width="1.8" stroke-linecap="round"/>
</svg>
