<svg width="77" height="77" viewBox="0 0 77 77" fill="none" xmlns="http://www.w3.org/2000/svg">
<circle cx="38.0094" cy="38.0093" r="37" transform="rotate(-15 38.0094 38.0093)" stroke="#3A434A" stroke-width="2"/>
<path d="M45.3603 19.8157L48.7272 27.6944L50.4597 26.9541L49.0073 23.5554L52.1963 22.1926L53.6487 25.5913L55.3811 24.8509L52.0142 16.9722L50.2818 17.7125L51.5738 20.736L48.3848 22.0988L47.0928 19.0753L45.3603 19.8157ZM53.5393 16.3205L56.9062 24.1992L62.887 21.6434L62.2646 20.1868L58.0162 22.0023L57.191 20.0712L61.009 18.4396L60.4337 17.0934L56.6157 18.725L55.8942 17.0367L60.0543 15.2589L59.4318 13.8024L53.5393 16.3205Z" fill="#3A434A"/>
<path d="M49.7439 29.8129L51.9615 38.0889L53.6654 37.6324L52.1808 32.0918L52.204 32.0856L57.1311 36.7037L58.9509 36.2161L56.7334 27.9401L55.0295 28.3966L56.5172 33.9488L56.494 33.955L51.5521 29.3284L49.7439 29.8129ZM61.1584 30.7671L60.5341 28.4373L62.5278 27.9031C62.945 27.7913 63.2829 27.8002 63.5412 27.9297C63.7975 28.0516 63.9794 28.3134 64.0871 28.7152C64.1989 29.1325 64.1753 29.4618 64.0164 29.7032C63.8574 29.9445 63.5693 30.1211 63.152 30.2329L61.1584 30.7671ZM58.3354 27.5108L60.5529 35.7869L62.3727 35.2993L61.5062 32.0653L63.326 31.5777C63.7819 31.4556 64.1373 31.468 64.392 31.6151C64.6468 31.7622 64.863 32.0438 65.0408 32.46C65.1762 32.7798 65.3041 33.1182 65.4246 33.4752C65.5451 33.8322 65.6908 34.1286 65.8617 34.3644L67.6815 33.8768C67.5654 33.7837 67.4625 33.6622 67.3726 33.5123C67.2884 33.3527 67.2099 33.1832 67.137 33.004C67.0719 32.8226 67.0116 32.6442 66.9563 32.4685C66.9009 32.2928 66.8518 32.1404 66.8089 32.0111C66.7375 31.8066 66.6507 31.6062 66.5484 31.41C66.4539 31.2117 66.3375 31.04 66.1992 30.8948C66.0588 30.7419 65.8987 30.6233 65.7187 30.5391C65.5367 30.447 65.3254 30.4001 65.0847 30.3984L65.0785 30.3752C65.4924 30.0655 65.7523 29.706 65.8579 29.2967C65.9713 28.8853 65.9628 28.4362 65.8324 27.9494C65.7475 27.6326 65.6108 27.3545 65.4224 27.1151C65.2397 26.8659 65.0122 26.6659 64.7399 26.5153C64.4754 26.3625 64.1769 26.2686 63.8445 26.2334C63.5177 26.1885 63.1689 26.2157 62.798 26.3151L58.3354 27.5108Z" fill="#3A434A"/>
<path d="M52.6195 40.6333L53.6429 49.14L55.5134 48.9149L54.49 40.4083L52.6195 40.6333ZM56.1332 40.2106L57.1566 48.7172L59.0271 48.4922L58.6974 45.752L59.6393 44.5388L62.6609 48.055L65.008 47.7727L60.7431 43.0644L63.6629 39.3047L61.3277 39.5856L58.428 43.5121L58.0037 39.9855L56.1332 40.2106Z" fill="#3A434A"/>
<path d="M13.0321 38.3235L12.9517 39.338L10.7403 39.9305C9.66449 40.2188 9.05996 41.3096 9.34022 42.3555L11.3901 50.0057C11.6783 51.0815 12.7393 51.694 13.8151 51.4057L25.2903 48.331C26.3362 48.0507 26.9786 46.9818 26.6903 45.906L24.6405 38.2558C24.3602 37.2099 23.2614 36.5755 22.2155 36.8558L19.9742 37.4563L19.3973 36.618C19.0659 36.0983 18.4159 35.824 17.7883 35.9922L14.1127 36.9771C13.4851 37.1452 13.0593 37.7077 13.0321 38.3235ZM18.784 46.9995C17.2001 47.4239 15.5709 46.4833 15.1465 44.8994C14.7221 43.3156 15.6628 41.6863 17.2466 41.2619C18.8304 40.8376 20.4597 41.7782 20.8841 43.3621C21.3085 44.9459 20.3678 46.5752 18.784 46.9995Z" fill="#3A434A"/>
</svg>
