<svg width="77" height="77" viewBox="0 0 77 77" fill="none" xmlns="http://www.w3.org/2000/svg">
<circle cx="38.0095" cy="38.0093" r="37" transform="rotate(-15 38.0095 38.0093)" stroke="white" stroke-width="2"/>
<path d="M45.3604 19.8157L47.0928 19.0753L48.3849 22.0988L51.5739 20.736L50.2818 17.7125L52.0143 16.9722L55.3812 24.8509L53.6487 25.5913L52.1964 22.1926L49.0073 23.5554L50.4597 26.9541L48.7273 27.6944L45.3604 19.8157ZM53.5394 16.3205L59.4319 13.8024L60.0543 15.2589L55.8943 17.0367L56.6158 18.725L60.4338 17.0934L61.0091 18.4396L57.1911 20.0712L58.0163 22.0023L62.2646 20.1868L62.8871 21.6434L56.9063 24.1992L53.5394 16.3205Z" fill="white"/>
<path d="M49.744 29.8129L51.5522 29.3284L56.494 33.955L56.5172 33.9488L55.0295 28.3966L56.7334 27.9401L58.951 36.2161L57.1312 36.7037L52.204 32.0856L52.1809 32.0918L53.6654 37.6324L51.9615 38.0889L49.744 29.8129ZM61.1584 30.7671L63.1521 30.2329C63.5694 30.1211 63.8575 29.9445 64.0164 29.7032C64.1754 29.4618 64.199 29.1325 64.0871 28.7152C63.9795 28.3134 63.7975 28.0516 63.5412 27.9297C63.2829 27.8002 62.9451 27.7913 62.5278 27.9031L60.5342 28.4373L61.1584 30.7671ZM58.3354 27.5108L62.798 26.3151C63.1689 26.2157 63.5178 26.1885 63.8445 26.2334C64.177 26.2686 64.4755 26.3625 64.74 26.5153C65.0123 26.6659 65.2398 26.8659 65.4225 27.1151C65.6109 27.3545 65.7475 27.6326 65.8324 27.9494C65.9629 28.4362 65.9714 28.8853 65.858 29.2967C65.7523 29.706 65.4925 30.0655 65.0786 30.3752L65.0848 30.3984C65.3254 30.4001 65.5368 30.447 65.7188 30.5391C65.8987 30.6233 66.0589 30.7419 66.1992 30.8948C66.3375 31.04 66.4539 31.2117 66.5485 31.41C66.6507 31.6062 66.7376 31.8066 66.8089 32.0111C66.8518 32.1404 66.901 32.2928 66.9563 32.4685C67.0117 32.6442 67.0719 32.8226 67.1371 33.004C67.21 33.1832 67.2885 33.3527 67.3727 33.5123C67.4625 33.6622 67.5655 33.7837 67.6815 33.8768L65.8617 34.3644C65.6909 34.1286 65.5452 33.8322 65.4247 33.4752C65.3042 33.1182 65.1763 32.7798 65.0409 32.46C64.8631 32.0438 64.6468 31.7622 64.3921 31.6151C64.1373 31.468 63.782 31.4556 63.3261 31.5777L61.5063 32.0653L62.3728 35.2993L60.553 35.7869L58.3354 27.5108Z" fill="white"/>
<path d="M52.6196 40.6333L54.4901 40.4083L55.5135 48.9149L53.643 49.14L52.6196 40.6333ZM56.1333 40.2106L58.0038 39.9855L58.4281 43.5121L61.3279 39.5856L63.663 39.3047L60.7432 43.0644L65.0081 47.7727L62.661 48.055L59.6394 44.5388L58.6975 45.752L59.0272 48.4922L57.1567 48.7172L56.1333 40.2106Z" fill="white"/>
<path d="M13.0321 38.3235C13.0593 37.7077 13.4851 37.1452 14.1127 36.9771L17.7883 35.9922C18.4159 35.824 19.0659 36.0983 19.3973 36.618L19.9742 37.4563L22.2155 36.8558C23.2614 36.5755 24.3602 37.2099 24.6405 38.2558L26.6903 45.906C26.9786 46.9818 26.3362 48.0507 25.2903 48.331L13.8151 51.4057C12.7393 51.694 11.6783 51.0815 11.3901 50.0057L9.34022 42.3555C9.05996 41.3096 9.66449 40.2188 10.7403 39.9305L12.9517 39.338L13.0321 38.3235ZM17.2466 41.2619C16.2007 41.5422 15.4264 42.3582 15.1207 43.369C14.8529 44.4016 15.1492 45.5073 15.8894 46.2378C16.6675 46.9901 17.738 47.2798 18.784 46.9995C19.8 46.7273 20.5823 45.9412 20.8799 44.9005C21.1557 43.8978 20.8595 42.7921 20.1112 42.0317C19.3411 41.3093 18.2626 40.9897 17.2466 41.2619Z" fill="white"/>
</svg>
